<svg width="74" height="75" viewBox="0 0 74 75" fill="none" xmlns="http://www.w3.org/2000/svg">
<path opacity="0.21" d="M50.9697 0C63.6722 0.000138887 73.9697 10.2975 73.9697 23V51.1611C73.9697 63.8636 63.6722 74.161 50.9697 74.1611H23C10.2975 74.1611 0 63.8637 0 51.1611V23C9.2858e-06 10.2975 10.2975 0 23 0H50.9697Z" fill="#215195"/>
<path opacity="0.587821" d="M46.8475 30.4886C49.571 30.4887 51.7792 32.7025 51.7792 35.433C51.779 38.1634 49.5709 40.3773 46.8475 40.3773C44.1241 40.3773 41.916 38.1634 41.9159 35.433C41.9159 32.7024 44.1241 30.4886 46.8475 30.4886ZM32.0536 22.2484C35.6847 22.2485 38.6286 25.1997 38.6288 28.8402C38.6288 32.4809 35.6848 35.4329 32.0536 35.433C28.4223 35.433 25.4784 32.4809 25.4784 28.8402C25.4786 25.1996 28.4224 22.2484 32.0536 22.2484Z" fill="#215195"/>
<path fill-rule="evenodd" clip-rule="evenodd" d="M32.0263 38.7289C39.8964 38.7289 46.362 42.5085 46.8437 50.5951C46.8629 50.9176 46.8437 51.9134 45.6093 51.9135H18.456C18.0438 51.9135 17.226 51.0216 17.2607 50.5931C17.898 42.7278 24.2655 38.7289 32.0263 38.7289ZM46.1924 42.0277C51.7916 42.0893 56.3629 44.9259 56.707 50.9242C56.7209 51.1658 56.7072 51.9135 55.8154 51.9135H49.4775C49.4775 48.2044 48.2548 44.7817 46.1924 42.0277Z" fill="#215195"/>
</svg>
