<svg width="14" height="14" viewBox="0 0 14 14" fill="none" xmlns="http://www.w3.org/2000/svg">
<g clip-path="url(#clip0_79_23)">
<path d="M6.51187 0.159912C6.82474 0.0347865 7.17459 0.0347865 7.48746 0.159912L13.7248 2.65601C13.8058 2.6885 13.876 2.74383 13.925 2.81616C13.9739 2.88841 13.9991 2.97404 13.9992 3.06128V10.6414C13.999 10.816 13.9468 10.987 13.8488 11.1316C13.7507 11.2762 13.6116 11.388 13.4494 11.4529L7.16226 13.9675C7.05785 14.0094 6.94148 14.0093 6.83707 13.9675L0.550934 11.4529C0.388404 11.3882 0.248806 11.2763 0.150543 11.1316C0.0523624 10.987 -0.000556136 10.8162 -0.000823975 10.6414V3.06128C-0.000726034 2.97404 0.0254763 2.88841 0.0743713 2.81616C0.123336 2.74384 0.193494 2.6885 0.274567 2.65601L6.51187 0.159912ZM0.874176 10.6414L6.56168 12.9158V5.98218L0.874176 3.70874V10.6414ZM7.43668 5.98315V12.9148L13.1242 10.6404V3.70874L7.43668 5.98315ZM4.89566 4.37378L6.99918 5.2146L12.3839 3.06128L10.2804 2.22046L4.89566 4.37378ZM7.16226 0.973389C7.05781 0.931529 6.94152 0.931537 6.83707 0.973389L1.61441 3.06128L3.71793 3.9021L9.10269 1.74878L7.16226 0.973389Z" fill="white"/>
</g>
<defs>
<clipPath id="clip0_79_23">
<rect width="14" height="14" fill="white"/>
</clipPath>
</defs>
</svg>
