<svg width="14" height="14" viewBox="0 0 14 14" fill="none" xmlns="http://www.w3.org/2000/svg">
<g clip-path="url(#clip0_79_34)">
<path d="M4.81168 7.87366C5.15977 7.87366 5.49425 8.01228 5.74039 8.25842C5.9864 8.50445 6.12405 8.83824 6.12418 9.18616V11.8112C6.12418 12.1593 5.98653 12.4937 5.74039 12.7399C5.49425 12.986 5.15977 13.1237 4.81168 13.1237H2.18668C1.83876 13.1235 1.50497 12.9859 1.25894 12.7399C1.0128 12.4937 0.874176 12.1593 0.874176 11.8112V9.18616C0.8743 8.83823 1.01291 8.50445 1.25894 8.25842C1.50497 8.01239 1.83875 7.87378 2.18668 7.87366H4.81168ZM11.8117 7.87366C12.1598 7.87366 12.4942 8.01228 12.7404 8.25842C12.9864 8.50445 13.1241 8.83824 13.1242 9.18616V11.8112C13.1242 12.1593 12.9865 12.4937 12.7404 12.7399C12.4942 12.986 12.1598 13.1237 11.8117 13.1237H9.18668C8.83876 13.1235 8.50497 12.9859 8.25894 12.7399C8.0128 12.4937 7.87418 12.1593 7.87418 11.8112V9.18616C7.8743 8.83823 8.01291 8.50445 8.25894 8.25842C8.50497 8.01239 8.83875 7.87378 9.18668 7.87366H11.8117ZM2.18668 8.74866C2.07081 8.74878 1.96002 8.79563 1.87808 8.87756C1.79615 8.9595 1.7493 9.07029 1.74918 9.18616V11.8112C1.74918 11.9272 1.79604 12.0387 1.87808 12.1207C1.96002 12.2027 2.07082 12.2485 2.18668 12.2487H4.81168C4.92771 12.2487 5.0392 12.2028 5.12125 12.1207C5.20329 12.0387 5.24918 11.9272 5.24918 11.8112V9.18616C5.24905 9.0703 5.20317 8.9595 5.12125 8.87756C5.0392 8.79552 4.92771 8.74866 4.81168 8.74866H2.18668ZM9.18668 8.74866C9.07081 8.74878 8.96002 8.79563 8.87808 8.87756C8.79614 8.9595 8.7493 9.07029 8.74918 9.18616V11.8112C8.74918 11.9272 8.79604 12.0387 8.87808 12.1207C8.96002 12.2027 9.07082 12.2485 9.18668 12.2487H11.8117C11.9277 12.2487 12.0392 12.2028 12.1212 12.1207C12.2033 12.0387 12.2492 11.9272 12.2492 11.8112V9.18616C12.2491 9.0703 12.2032 8.9595 12.1212 8.87756C12.0392 8.79552 11.9277 8.74866 11.8117 8.74866H9.18668ZM4.81168 0.873657C5.15977 0.873657 5.49425 1.01228 5.74039 1.25842C5.9864 1.50445 6.12405 1.83824 6.12418 2.18616V4.81116C6.12418 5.15925 5.98653 5.49373 5.74039 5.73987C5.49425 5.98601 5.15977 6.12366 4.81168 6.12366H2.18668C1.83876 6.12353 1.50497 5.98589 1.25894 5.73987C1.0128 5.49373 0.874176 5.15925 0.874176 4.81116V2.18616C0.8743 1.83823 1.01291 1.50445 1.25894 1.25842C1.50497 1.01239 1.83875 0.873781 2.18668 0.873657H4.81168ZM11.8117 0.873657C12.1598 0.873657 12.4942 1.01228 12.7404 1.25842C12.9864 1.50445 13.1241 1.83824 13.1242 2.18616V4.81116C13.1242 5.15925 12.9865 5.49373 12.7404 5.73987C12.4942 5.98601 12.1598 6.12366 11.8117 6.12366H9.18668C8.83876 6.12353 8.50497 5.98589 8.25894 5.73987C8.0128 5.49373 7.87418 5.15925 7.87418 4.81116V2.18616C7.8743 1.83823 8.01291 1.50445 8.25894 1.25842C8.50497 1.01239 8.83875 0.873781 9.18668 0.873657H11.8117ZM2.18668 1.74866C2.07081 1.74878 1.96002 1.79563 1.87808 1.87756C1.79615 1.9595 1.7493 2.07029 1.74918 2.18616V4.81116C1.74918 4.92719 1.79604 5.03868 1.87808 5.12073C1.96002 5.20265 2.07082 5.24853 2.18668 5.24866H4.81168C4.92771 5.24866 5.0392 5.20277 5.12125 5.12073C5.20329 5.03868 5.24918 4.92719 5.24918 4.81116V2.18616C5.24905 2.0703 5.20317 1.9595 5.12125 1.87756C5.0392 1.79552 4.92771 1.74866 4.81168 1.74866H2.18668ZM9.18668 1.74866C9.07081 1.74878 8.96002 1.79563 8.87808 1.87756C8.79614 1.9595 8.7493 2.07029 8.74918 2.18616V4.81116C8.74918 4.92719 8.79604 5.03868 8.87808 5.12073C8.96002 5.20265 9.07082 5.24853 9.18668 5.24866H11.8117C11.9277 5.24866 12.0392 5.20277 12.1212 5.12073C12.2033 5.03868 12.2492 4.92719 12.2492 4.81116V2.18616C12.2491 2.0703 12.2032 1.9595 12.1212 1.87756C12.0392 1.79552 11.9277 1.74866 11.8117 1.74866H9.18668Z" fill="#495057"/>
</g>
<defs>
<clipPath id="clip0_79_34">
<rect width="14" height="14" fill="white"/>
</clipPath>
</defs>
</svg>
