<svg width="14" height="14" viewBox="0 0 14 14" fill="none" xmlns="http://www.w3.org/2000/svg">
<g clip-path="url(#clip0_79_12)">
<path d="M6.99918 -0.00134277C8.85569 -0.00134277 10.6366 0.736684 11.9494 2.04944C13.262 3.36208 13.9991 5.14232 13.9992 6.99866C13.9992 8.85517 13.2621 10.6361 11.9494 11.9489C10.6366 13.2616 8.85569 13.9987 6.99918 13.9987C5.14284 13.9985 3.3626 13.2615 2.04996 11.9489C0.737203 10.6361 -0.000823975 8.85517 -0.000823975 6.99866C-0.000700307 5.14231 0.737313 3.36208 2.04996 2.04944C3.3626 0.736794 5.14283 -0.00121936 6.99918 -0.00134277ZM6.99918 0.873657C5.37489 0.873781 3.81765 1.52003 2.6691 2.66858C1.52055 3.81713 0.8743 5.37437 0.874176 6.99866C0.874176 8.62311 1.52044 10.1811 2.6691 11.3297C3.81765 12.4782 5.3749 13.1235 6.99918 13.1237C8.62363 13.1237 10.1816 12.4784 11.3302 11.3297C12.4789 10.1811 13.1242 8.62311 13.1242 6.99866C13.1241 5.37439 12.4788 3.81713 11.3302 2.66858C10.1816 1.51992 8.62363 0.873657 6.99918 0.873657ZM6.93765 9.88049C6.87555 10.1779 6.96283 10.3472 7.20328 10.3473C7.37303 10.3473 7.62886 10.2855 7.80386 10.1315L7.72672 10.4957C7.47556 10.7984 6.92132 11.0192 6.44449 11.0192C5.82971 11.019 5.56783 10.6494 5.73746 9.86487L6.38394 6.83069C6.43992 6.5744 6.38902 6.48081 6.13199 6.41956L5.73746 6.34729L5.80972 6.01428L7.81363 5.76331L6.93765 9.88049ZM6.99918 3.06116C7.23124 3.06116 7.45422 3.1539 7.61832 3.31799C7.78229 3.48198 7.87405 3.70427 7.87418 3.93616C7.87418 4.16822 7.78241 4.3912 7.61832 4.5553C7.45422 4.71939 7.23124 4.81116 6.99918 4.81116C6.76729 4.81103 6.54499 4.71927 6.38101 4.5553C6.21692 4.3912 6.12418 4.16822 6.12418 3.93616C6.1243 3.70426 6.21703 3.48198 6.38101 3.31799C6.545 3.15401 6.76728 3.06128 6.99918 3.06116Z" fill="#212529"/>
</g>
<defs>
<clipPath id="clip0_79_12">
<rect width="14" height="14" fill="white"/>
</clipPath>
</defs>
</svg>
