<svg width="30" height="30" viewBox="0 0 30 30" fill="none" xmlns="http://www.w3.org/2000/svg">
<path opacity="0.4" d="M11.5922 18.4079L13.9547 18.1125L20.5359 11.5313C19.8469 10.8422 19.1578 10.1532 18.4688 9.46411L11.8875 16.0454L11.5922 18.4079Z" fill="#215195"/>
<path d="M11.8875 16.0453L18.4688 9.46406C19.1578 10.1531 19.8469 10.8422 20.5359 11.5312L13.9547 18.1125L11.5922 18.4078L11.8875 16.0453ZM21.0938 8.90625L20.0578 7.875L22.125 5.80781L24.1922 7.875L22.125 9.94219L21.0938 8.90625ZM27.375 7.875C25.0688 5.56875 22.6031 3.10312 22.125 2.625L20.5359 4.21406L9.75 15C9.4125 17.6953 9.16406 19.6969 9 21C10.3031 20.8359 12.3047 20.5875 15 20.25L25.7859 9.46406L27.375 7.875ZM4.125 6H3V27H24V16.5H21.75V24.75H5.25V8.25H13.5V6H4.125Z" fill="#215195"/>
</svg>
