<svg width="16" height="16" viewBox="0 0 16 16" fill="none" xmlns="http://www.w3.org/2000/svg">
<g clip-path="url(#clip0_122_8091)">
<path d="M7.99976 -0.000823975C10.1215 -0.000818099 12.1567 0.841664 13.657 2.34195C15.1573 3.84224 15.9998 5.87745 15.9998 7.99918C15.9998 10.1209 15.1573 12.1561 13.657 13.6564C12.1567 15.1567 10.1215 15.9992 7.99976 15.9992C5.87803 15.9992 3.84282 15.1567 2.34253 13.6564C0.842238 12.1561 -0.000244141 10.1209 -0.000244141 7.99918C-0.000241684 5.87745 0.842241 3.84224 2.34253 2.34195C3.84282 0.841668 5.87803 -0.000823975 7.99976 -0.000823975ZM7.99976 0.999176C6.14325 0.999176 4.36231 1.73624 3.04956 3.04898C1.73681 4.36173 0.999758 6.14266 0.999756 7.99918C0.999756 9.85569 1.73681 11.6366 3.04956 12.9494C4.36231 14.2621 6.14324 14.9992 7.99976 14.9992C9.85626 14.9992 11.6372 14.2621 12.95 12.9494C14.2627 11.6366 14.9998 9.85568 14.9998 7.99918C14.9998 6.14267 14.2627 4.36173 12.95 3.04898C11.6372 1.73623 9.85626 0.999182 7.99976 0.999176ZM7.99976 3.99918C8.13236 3.99918 8.25951 4.0519 8.35327 4.14566C8.44703 4.23943 8.49975 4.36657 8.49976 4.49918V7.49918H11.4998C11.6324 7.49918 11.7595 7.5519 11.8533 7.64566C11.947 7.73943 11.9998 7.86657 11.9998 7.99918C11.9998 8.13178 11.947 8.25893 11.8533 8.35269C11.7595 8.44646 11.6324 8.49917 11.4998 8.49918H8.49976V11.4992C8.49976 11.6318 8.44703 11.7589 8.35327 11.8527C8.25951 11.9465 8.13236 11.9992 7.99976 11.9992C7.86715 11.9992 7.74001 11.9465 7.64624 11.8527C7.55247 11.7589 7.49976 11.6318 7.49976 11.4992V8.49918H4.49976C4.36715 8.49918 4.24001 8.44646 4.14624 8.35269C4.05247 8.25892 3.99976 8.13178 3.99976 7.99918C3.99976 7.86657 4.05247 7.73943 4.14624 7.64566C4.24001 7.5519 4.36716 7.49918 4.49976 7.49918H7.49976V4.49918C7.49976 4.36657 7.55247 4.23943 7.64624 4.14566C7.74001 4.0519 7.86716 3.99918 7.99976 3.99918Z" fill="white"/>
</g>
<defs>
<clipPath id="clip0_122_8091">
<rect width="16" height="16" fill="white"/>
</clipPath>
</defs>
</svg>
