<svg width="19" height="14" viewBox="0 0 19 14" fill="none" xmlns="http://www.w3.org/2000/svg">
<path d="M9.5 5.7931C8.18781 5.7931 7.125 4.71293 7.125 3.37931C7.125 2.04569 8.18781 0.965517 9.5 0.965517C10.8122 0.965517 11.875 2.04569 11.875 3.37931C11.875 4.71293 10.8122 5.7931 9.5 5.7931ZM9.5 0C7.66234 0 6.175 1.51164 6.175 3.37931C6.175 5.24698 7.66234 6.75862 9.5 6.75862C11.3377 6.75862 12.825 5.24698 12.825 3.37931C12.825 1.51164 11.3377 0 9.5 0ZM10.2125 9.17241C12.1808 9.17241 13.775 10.7927 13.775 12.7931V13.5172C13.775 13.7828 13.9887 14 14.25 14C14.5113 14 14.725 13.7828 14.725 13.5172V12.7931C14.725 10.2616 12.7033 8.2069 10.2125 8.2069H8.7875C6.29672 8.2069 4.275 10.2616 4.275 12.7931V13.5172C4.275 13.7828 4.48875 14 4.75 14C5.01125 14 5.225 13.7828 5.225 13.5172V12.7931C5.225 10.7927 6.81922 9.17241 8.7875 9.17241H10.2125ZM6.19281 6.8431C5.96125 6.61379 5.75047 6.36034 5.56938 6.08879C5.32297 6.20948 5.04391 6.27586 4.75 6.27586C3.70203 6.27586 2.85 5.40991 2.85 4.34483C2.85 3.27974 3.70203 2.41379 4.75 2.41379C4.78266 2.41379 4.81234 2.41379 4.845 2.41681C4.91031 2.09095 5.00828 1.77414 5.13594 1.47543C5.01125 1.45733 4.88062 1.44828 4.75297 1.44828C3.17953 1.44828 1.90297 2.74569 1.90297 4.34483C1.90297 5.94397 3.17953 7.24138 4.75297 7.24138C5.27844 7.24138 5.77125 7.09655 6.19578 6.8431H6.19281ZM14.25 1.44828C14.1194 1.44828 13.9917 1.45733 13.867 1.47543C13.9947 1.77414 14.0927 2.09095 14.158 2.41681C14.1906 2.41379 14.2203 2.41379 14.253 2.41379C15.3009 2.41379 16.153 3.27974 16.153 4.34483C16.153 5.40991 15.3009 6.27586 14.253 6.27586C13.9591 6.27586 13.683 6.20948 13.4366 6.08879C13.2555 6.36336 13.0447 6.61379 12.8131 6.8431C13.2347 7.09655 13.7275 7.24138 14.2559 7.24138C15.8294 7.24138 17.1059 5.94397 17.1059 4.34483C17.1059 2.74569 15.8294 1.44828 14.2559 1.44828H14.25ZM14.5647 8.68966C14.8497 9.00043 15.102 9.34138 15.3158 9.70948C16.8684 9.9931 18.05 11.375 18.05 13.0345V13.5172C18.05 13.7828 18.2638 14 18.525 14C18.7862 14 19 13.7828 19 13.5172V13.0345C19 10.6358 17.0852 8.68966 14.725 8.68966H14.5647ZM3.68125 9.70948C3.895 9.3444 4.14734 9.00043 4.43234 8.68966H4.275C1.91484 8.68966 0 10.6358 0 13.0345V13.5172C0 13.7828 0.213751 14 0.475 14C0.73625 14 0.950001 13.7828 0.950001 13.5172V13.0345C0.950001 11.375 2.12859 9.9931 3.68422 9.70948H3.68125Z" fill="white"/>
</svg>
