<svg width="14" height="14" viewBox="0 0 14 14" fill="none" xmlns="http://www.w3.org/2000/svg">
<g clip-path="url(#clip0_79_57)">
<path d="M5.42816 1.1748C5.88929 -0.391445 8.10961 -0.391445 8.57074 1.1748L8.65375 1.45312C8.68591 1.56232 8.74177 1.66335 8.81781 1.74805C8.89401 1.83281 8.98888 1.89973 9.09418 1.94336C9.19925 1.98684 9.31265 2.00693 9.42621 2.00098C9.54003 1.99494 9.65131 1.96272 9.7514 1.9082L10.0073 1.76953C11.4414 0.988267 13.0123 2.55722 12.2309 3.99219L12.0903 4.24707C12.0358 4.34714 12.0045 4.45847 11.9985 4.57227C11.9924 4.68605 12.0115 4.8 12.0551 4.90527C12.0987 5.01048 12.1658 5.1045 12.2504 5.18066C12.3352 5.25685 12.436 5.3135 12.5453 5.3457L12.8246 5.42773C14.3908 5.88887 14.3907 8.10907 12.8246 8.57031L12.5453 8.65332C12.4361 8.68553 12.3351 8.74125 12.2504 8.81738C12.1657 8.89358 12.0987 8.98845 12.0551 9.09375C12.0117 9.19878 11.9925 9.31228 11.9985 9.42578C12.0045 9.53952 12.0358 9.65094 12.0903 9.75098L12.2299 10.0068C13.0118 11.4408 11.4421 13.0114 10.0073 12.2305L9.7514 12.0898C9.65137 12.0354 9.53994 12.0041 9.42621 11.998C9.31271 11.9921 9.1992 12.0113 9.09418 12.0547C8.98888 12.0983 8.89401 12.1652 8.81781 12.25C8.74168 12.3347 8.68595 12.4357 8.65375 12.5449L8.57074 12.8242C8.1095 14.3903 5.8893 14.3904 5.42816 12.8242L5.34613 12.5449C5.31392 12.4356 5.25728 12.3348 5.18109 12.25C5.10493 12.1653 5.01091 12.0983 4.9057 12.0547C4.80043 12.0111 4.68648 11.992 4.57269 11.998C4.4589 12.0041 4.34757 12.0353 4.2475 12.0898L3.99261 12.2295C2.55766 13.0117 0.988646 11.4418 1.76898 10.0068L1.90863 9.75098C1.96315 9.65088 1.99537 9.5396 2.0014 9.42578C2.00735 9.31223 1.98727 9.19882 1.94379 9.09375C1.90016 8.98845 1.83324 8.89358 1.74847 8.81738C1.66378 8.74134 1.56274 8.68548 1.45355 8.65332L1.17523 8.57031C-0.391018 8.10919 -0.391018 5.88886 1.17523 5.42773L1.45355 5.3457C1.56285 5.31351 1.66373 5.25683 1.74847 5.18066C1.83321 5.10449 1.90016 5.01053 1.94379 4.90527C1.98742 4.79998 2.00744 4.68608 2.0014 4.57227C1.99536 4.45847 1.96314 4.34715 1.90863 4.24707L1.76996 3.99219C0.988584 2.55806 2.55761 0.988055 3.99261 1.76855L4.2475 1.9082C4.34758 1.96271 4.45889 1.99494 4.57269 2.00098C4.68651 2.00701 4.8004 1.98699 4.9057 1.94336C5.01096 1.89973 5.10492 1.83279 5.18109 1.74805C5.25725 1.6633 5.31394 1.56243 5.34613 1.45312L5.42816 1.1748ZM7.73187 1.42188C7.5165 0.691469 6.4823 0.691377 6.26703 1.42188L6.185 1.70117C6.11583 1.93557 5.9949 2.15129 5.83148 2.33301C5.66804 2.51472 5.46645 2.65841 5.24066 2.75195C5.01492 2.84545 4.77079 2.8869 4.52679 2.87402C4.28269 2.86109 4.04422 2.79364 3.82953 2.67676L3.57367 2.53809C2.90439 2.17429 2.17466 2.90484 2.53754 3.57324L2.67719 3.8291C2.79383 4.04363 2.86155 4.28154 2.87445 4.52539C2.8873 4.76937 2.84491 5.01355 2.7514 5.23926C2.6579 5.46491 2.51501 5.6667 2.33344 5.83008C2.1518 5.99347 1.9359 6.11439 1.7016 6.18359L1.4223 6.26562C0.691784 6.48087 0.691914 7.51508 1.4223 7.73047L1.7016 7.81348C1.93624 7.8826 2.15252 8.00343 2.33441 8.16699C2.51624 8.33055 2.65983 8.53281 2.75336 8.75879C2.84675 8.98463 2.88847 9.22861 2.87543 9.47266C2.86233 9.71686 2.7943 9.95523 2.67719 10.1699L2.53851 10.4248C2.17458 11.0941 2.90527 11.8246 3.57367 11.4619L3.82953 11.3223C4.04422 11.2054 4.28269 11.1379 4.52679 11.125C4.7708 11.1121 5.01491 11.1536 5.24066 11.2471C5.4663 11.3406 5.66811 11.4835 5.83148 11.665C5.99495 11.8468 6.11582 12.0634 6.185 12.2979L6.26703 12.5762C6.48228 13.3068 7.51662 13.3068 7.73187 12.5762L7.8139 12.2979C7.88296 12.0633 8.004 11.8469 8.16742 11.665C8.33088 11.4832 8.53333 11.3407 8.75922 11.2471C8.98507 11.1535 9.22894 11.1111 9.47308 11.124C9.71731 11.137 9.95558 11.2053 10.1703 11.3223L10.4252 11.4609C11.0946 11.8249 11.8255 11.0933 11.4623 10.4248L11.3227 10.1699C11.2057 9.95535 11.1375 9.71765 11.1245 9.47363C11.1114 9.22943 11.153 8.98474 11.2465 8.75879C11.3401 8.53284 11.4836 8.33052 11.6655 8.16699C11.8472 8.00359 12.0638 7.88259 12.2983 7.81348L12.5766 7.73145C13.3072 7.5162 13.3072 6.48185 12.5766 6.2666L12.2983 6.18457C12.0639 6.11548 11.8482 5.99438 11.6664 5.83105C11.4846 5.66764 11.3411 5.46604 11.2475 5.24023C11.1539 5.01443 11.1126 4.77046 11.1254 4.52637C11.1383 4.28222 11.2058 4.04385 11.3227 3.8291L11.4614 3.57324C11.8249 2.90396 11.0936 2.17404 10.4252 2.53711L10.1703 2.67676C9.95584 2.79363 9.71799 2.86095 9.47406 2.87402C9.22985 2.88704 8.98517 2.84551 8.75922 2.75195C8.53334 2.6584 8.33091 2.51577 8.16742 2.33398C8.00389 2.15215 7.88305 1.93574 7.8139 1.70117L7.73187 1.42188ZM6.99945 4.15918C7.75273 4.15918 8.47559 4.45856 9.00824 4.99121C9.54068 5.52378 9.8402 6.24594 9.84027 6.99902C9.84027 7.7523 9.54089 8.47516 9.00824 9.00781C8.47559 9.54046 7.75273 9.83984 6.99945 9.83984C6.62655 9.83981 6.25705 9.76575 5.91254 9.62305C5.56817 9.48036 5.25525 9.27136 4.99164 9.00781C4.7279 8.74407 4.51816 8.43053 4.37543 8.08594C4.23277 7.74143 4.15961 7.3719 4.15961 6.99902C4.15964 6.62612 4.23272 6.25663 4.37543 5.91211C4.51816 5.56757 4.72793 5.25492 4.99164 4.99121C5.25535 4.7275 5.56799 4.51773 5.91254 4.375C6.25705 4.2323 6.62655 4.15921 6.99945 4.15918ZM6.99945 5.03418C6.47833 5.03425 5.9783 5.24088 5.6098 5.60938C5.24131 5.97787 5.03467 6.4779 5.03461 6.99902C5.03461 7.52012 5.24141 8.02014 5.6098 8.38867C5.9783 8.75717 6.47833 8.96478 6.99945 8.96484C7.52067 8.96484 8.02054 8.75723 8.3891 8.38867C8.75765 8.02012 8.96527 7.52024 8.96527 6.99902C8.9652 6.4779 8.75759 5.97787 8.3891 5.60938C8.02057 5.24098 7.52055 5.03418 6.99945 5.03418Z" fill="#212529"/>
</g>
<defs>
<clipPath id="clip0_79_57">
<rect width="14" height="14" fill="white"/>
</clipPath>
</defs>
</svg>
