<svg width="76" height="76" viewBox="0 0 76 76" fill="none" xmlns="http://www.w3.org/2000/svg">
<path opacity="0.21" d="M53 0C65.7025 0 76 10.2975 76 23V53C76 65.7025 65.7025 76 53 76H23C10.2975 76 3.2215e-07 65.7025 0 53V23C0 10.2975 10.2975 3.22129e-07 23 0H53Z" fill="#3888FB"/>
<path d="M24.2073 51.7927H53.7629C54.8511 51.7927 55.7333 52.6748 55.7333 53.763C55.7333 54.8512 54.8511 55.7334 53.7629 55.7334H22.237C21.1488 55.7334 20.2666 54.8512 20.2666 53.763V22.2371C20.2666 21.1489 21.1488 20.2667 22.237 20.2667C23.3252 20.2667 24.2073 21.1489 24.2073 22.2371V51.7927Z" fill="#3888FB"/>
<path opacity="0.5" d="M31.556 43.2883C30.8118 44.0822 29.5648 44.1224 28.771 43.3782C27.9771 42.6339 27.9368 41.387 28.6811 40.5931L36.07 32.7116C36.7898 31.9438 37.9859 31.8772 38.7865 32.5604L44.6182 37.5368L52.2165 27.9124C52.8908 27.0583 54.1298 26.9125 54.9839 27.5868C55.8381 28.2611 55.9838 29.5001 55.3095 30.3542L46.4429 41.5853C45.7503 42.4626 44.4675 42.5887 43.6173 41.8632L37.6588 36.7787L31.556 43.2883Z" fill="#3888FB"/>
</svg>
